<svg id="visual" viewBox="0 0 900 600" width="900" height="600" xmlns="http://www.w3.org/2000/svg" xmlns:xlink="http://www.w3.org/1999/xlink" version="1.1"><path d="M0 425L21.5 426.3C43 427.7 86 430.3 128.8 428.8C171.7 427.3 214.3 421.7 257.2 412.8C300 404 343 392 385.8 397.8C428.7 403.7 471.3 427.3 514.2 446.2C557 465 600 479 642.8 473.5C685.7 468 728.3 443 771.2 437.5C814 432 857 446 878.5 453L900 460L900 601L878.5 601C857 601 814 601 771.2 601C728.3 601 685.7 601 642.8 601C600 601 557 601 514.2 601C471.3 601 428.7 601 385.8 601C343 601 300 601 257.2 601C214.3 601 171.7 601 128.8 601C86 601 43 601 21.5 601L0 601Z" fill="#2D3748" stroke-linecap="round" stroke-linejoin="miter"></path></svg>