<svg width="19" height="19" viewBox="0 0 19 19" fill="none" xmlns="http://www.w3.org/2000/svg">
<path d="M8.5448 0.0049219C8.50548 0.00849714 8.38034 0.0210104 8.26772 0.0299485C5.67032 0.264126 3.23737 1.66562 1.69645 3.81969C0.838392 5.0174 0.289594 6.37599 0.0822303 7.81502C0.00893808 8.31734 0 8.46571 0 9.14679C0 9.82787 0.00893808 9.97624 0.0822303 10.4786C0.579188 13.9126 3.02286 16.7978 6.3371 17.8668C6.93059 18.0581 7.55625 18.1886 8.26772 18.2672C8.5448 18.2976 9.74251 18.2976 10.0196 18.2672C11.2477 18.1313 12.2881 17.8275 13.3142 17.3037C13.4715 17.2232 13.5019 17.2018 13.4804 17.1839C13.4661 17.1732 12.7958 16.274 11.9913 15.1871L10.5291 13.2118L8.69675 10.5C7.68854 9.00914 6.85908 7.78999 6.85193 7.78999C6.84478 7.7882 6.83763 8.99306 6.83406 10.4643C6.82869 13.0402 6.82691 13.1439 6.79473 13.2047C6.74825 13.2923 6.7125 13.328 6.63742 13.3674C6.58021 13.396 6.53016 13.4013 6.26023 13.4013H5.95097L5.86874 13.3495C5.81511 13.3155 5.77579 13.2708 5.74897 13.219L5.71143 13.1385L5.71501 9.55437L5.72037 5.96841L5.77579 5.89869C5.80439 5.86115 5.86517 5.81289 5.90807 5.78965C5.98136 5.7539 6.00996 5.75032 6.31922 5.75032C6.6839 5.75032 6.74468 5.76462 6.83942 5.8683C6.86623 5.8969 7.85836 7.39135 9.04534 9.19148C10.2323 10.9916 11.8555 13.4496 12.6527 14.6562L14.1007 16.8496L14.174 16.8014C14.8229 16.3795 15.5094 15.7788 16.0528 15.1532C17.2094 13.825 17.9548 12.2054 18.2051 10.4786C18.2784 9.97624 18.2873 9.82787 18.2873 9.14679C18.2873 8.46571 18.2784 8.31734 18.2051 7.81502C17.7081 4.38101 15.2645 1.49579 11.9502 0.426799C11.3657 0.237312 10.7436 0.106816 10.0464 0.0281609C9.87479 0.0102848 8.69318 -0.00937902 8.5448 0.0049219ZM12.2881 5.53581C12.3739 5.57871 12.4436 5.66094 12.4686 5.74674C12.4829 5.79322 12.4865 6.78714 12.4829 9.02702L12.4776 12.2412L11.9109 11.3724L11.3424 10.5036V8.16718C11.3424 6.65664 11.3496 5.80752 11.3603 5.76641C11.3889 5.6663 11.4515 5.58765 11.5373 5.54117C11.6106 5.50363 11.6374 5.50005 11.918 5.50005C12.1826 5.50005 12.2291 5.50363 12.2881 5.53581Z" fill="#F9FAFB"/>
</svg>
