<svg width="17" height="19" viewBox="0 0 17 19" fill="none" xmlns="http://www.w3.org/2000/svg">
<path d="M7.54984 0.195129C8.00334 -0.0644563 8.59404 -0.0656288 9.04716 0.195129C11.3267 1.48322 13.6071 2.76928 15.8863 4.05815C16.3149 4.29963 16.6017 4.77672 16.5973 5.27068V13.0203C16.6005 13.5347 16.2854 14.0232 15.8332 14.2592C13.5611 15.5402 11.2901 16.8228 9.01843 18.1037C8.55554 18.3684 7.95299 18.348 7.50456 18.0617C6.82339 17.6668 6.14104 17.2739 5.4598 16.8794C5.3206 16.7964 5.16368 16.7303 5.06538 16.5954C5.15228 16.4782 5.30764 16.4636 5.43388 16.4125C5.71822 16.3221 5.97936 16.177 6.24058 16.0361C6.30663 15.9909 6.38727 16.0082 6.45059 16.0487C7.03308 16.3827 7.61042 16.7263 8.19486 17.0571C8.31954 17.1291 8.44578 17.0336 8.55235 16.9741C10.782 15.714 13.0143 14.4586 15.2436 13.1981C15.3262 13.1583 15.3718 13.0707 15.3651 12.9802C15.3667 10.4237 15.3655 7.86685 15.3659 5.31042C15.3754 5.20775 15.3159 5.11336 15.2231 5.07135C12.9589 3.79622 10.6959 2.51915 8.43203 1.24369C8.39281 1.21673 8.34635 1.20226 8.29875 1.20219C8.25115 1.20212 8.20465 1.21645 8.16535 1.2433C5.90152 2.51915 3.63887 3.7974 1.37504 5.07246C1.28254 5.11454 1.22046 5.20736 1.23147 5.31042C1.23186 7.86685 1.23147 10.4237 1.23147 12.9806C1.22755 13.0247 1.23724 13.069 1.25925 13.1075C1.28127 13.146 1.31454 13.1768 1.35459 13.1957C1.9587 13.5383 2.56359 13.8785 3.1681 14.2199C3.50865 14.4032 3.92679 14.5121 4.302 14.3717C4.63311 14.2529 4.8652 13.915 4.85888 13.5635C4.86201 11.0219 4.85732 8.48002 4.86123 5.93889C4.85296 5.82607 4.95998 5.73285 5.06968 5.74347C5.35994 5.74151 5.6506 5.73956 5.94087 5.74425C6.06203 5.74151 6.14541 5.863 6.13043 5.97667C6.12925 8.53428 6.13355 11.092 6.12847 13.6496C6.12925 14.3312 5.84921 15.0729 5.21872 15.4064C4.44198 15.8088 3.48194 15.7234 2.71459 15.3376C2.05029 15.0061 1.41634 14.6148 0.763828 14.2595C0.310385 14.0248 -0.00313582 13.5344 5.60664e-05 13.0204V5.27068C-0.00469919 4.76649 0.293449 4.28074 0.735492 4.04278C3.0072 2.76075 5.27852 1.47774 7.54984 0.195129Z" fill="#F9FAFB"/>
<path d="M9.53169 5.56335C10.5225 5.49957 11.5832 5.52556 12.4747 6.01366C13.165 6.3877 13.5477 7.17271 13.5599 7.93961C13.5406 8.04305 13.4325 8.10011 13.3337 8.09301C13.0463 8.09262 12.7587 8.09692 12.4713 8.09106C12.3493 8.09575 12.2785 7.98331 12.2632 7.87551C12.1806 7.50857 11.9804 7.14515 11.6351 6.96817C11.1049 6.70272 10.4902 6.71607 9.91204 6.72161C9.49 6.74402 9.03616 6.78056 8.67861 7.02875C8.4041 7.21674 8.32072 7.59625 8.4187 7.90189C8.51106 8.12135 8.7644 8.19216 8.97167 8.25743C10.1657 8.56971 11.431 8.53864 12.6022 8.94961C13.0871 9.11715 13.5615 9.44285 13.7274 9.95056C13.9446 10.631 13.8494 11.4444 13.3653 11.9906C12.9727 12.4402 12.4009 12.6848 11.8306 12.8177C11.0719 12.9869 10.2845 12.9912 9.51403 12.9161C8.78954 12.8335 8.0356 12.6431 7.47631 12.1495C6.99805 11.7342 6.76445 11.0872 6.78764 10.4627C6.79318 10.3572 6.89819 10.2837 6.99922 10.2923C7.2887 10.29 7.57819 10.2892 7.86767 10.2927C7.9833 10.2845 8.06902 10.3844 8.07495 10.4934C8.12837 10.843 8.25975 11.2099 8.56461 11.4172C9.15296 11.7968 9.8912 11.7708 10.5649 11.7814C11.123 11.7566 11.7495 11.7492 12.205 11.3803C12.4453 11.1699 12.5165 10.8178 12.4515 10.515C12.3812 10.2593 12.1137 10.1402 11.884 10.0623C10.7053 9.68941 9.4259 9.82471 8.25858 9.40305C7.78468 9.23557 7.32642 8.91893 7.14435 8.43207C6.8903 7.74301 7.00671 6.89071 7.54158 6.36288C8.06309 5.83785 8.81592 5.63565 9.53169 5.56328V5.56335Z" fill="#F9FAFB"/>
</svg>
