<svg width="15" height="19" viewBox="0 0 15 19" fill="none" xmlns="http://www.w3.org/2000/svg">
<path fill-rule="evenodd" clip-rule="evenodd" d="M14.8818 13.7821L8.6607 0.570643C8.5834 0.408051 8.46358 0.269384 8.31392 0.169319C8.16426 0.0692532 7.99033 0.0115126 7.81054 0.00220875C7.63043 -0.00985886 7.45046 0.0276887 7.2902 0.110768C7.12995 0.193847 6.99553 0.319277 6.90159 0.473417L0.154093 11.4021C0.0514864 11.5671 -0.00194808 11.758 5.42802e-05 11.9523C0.00205664 12.1466 0.0594129 12.3363 0.165398 12.4992L3.46431 17.6078C3.58911 17.7996 3.77257 17.9459 3.98731 18.0249C4.20206 18.1038 4.43658 18.1113 4.65589 18.046L14.2293 15.2143C14.3734 15.1721 14.5068 15.0995 14.6205 15.0014C14.7342 14.9032 14.8254 14.7818 14.8882 14.6454C14.95 14.5096 14.9815 14.362 14.9805 14.2129C14.9795 14.0637 14.9455 13.917 14.8818 13.7821ZM13.489 14.3487L5.36542 16.7509C5.1176 16.8246 4.87974 16.6098 4.93129 16.3597L7.8336 2.46271C7.88787 2.20269 8.24693 2.16153 8.36043 2.40211L13.7332 13.8115C13.757 13.8623 13.7694 13.9177 13.7697 13.9738C13.7699 14.03 13.758 14.0855 13.7348 14.1365C13.7115 14.1876 13.6775 14.233 13.635 14.2697C13.5924 14.3063 13.5429 14.3333 13.489 14.3487Z" fill="#F9FAFB"/>
</svg>
