<svg width="21" height="19" viewBox="0 0 21 19" fill="none" xmlns="http://www.w3.org/2000/svg">
<path d="M20.538 9.14709C20.538 7.78654 18.8342 6.49716 16.222 5.69757C16.8248 3.03508 16.5569 0.916802 15.3763 0.23862C15.1042 0.0795398 14.7861 0.00418625 14.4386 0.00418625V0.937734C14.6312 0.937734 14.7861 0.975411 14.9158 1.04658C15.4852 1.37311 15.7322 2.61645 15.5396 4.21562C15.4935 4.60913 15.4182 5.02358 15.3261 5.44639C14.5056 5.24545 13.6097 5.09056 12.6678 4.99008C12.1026 4.21562 11.5165 3.51232 10.9263 2.89693C12.291 1.62848 13.572 0.933548 14.4428 0.933548V0C13.2915 0 11.7845 0.820517 10.2607 2.24386C8.73683 0.82889 7.22976 0.0167453 6.07853 0.0167453V0.950293C6.94509 0.950293 8.23029 1.64103 9.59503 2.90111C9.00895 3.5165 8.42286 4.21562 7.86608 4.99008C6.91998 5.09056 6.0241 5.24545 5.20359 5.45058C5.1073 5.03195 5.03613 4.62587 4.9859 4.23655C4.78914 2.63738 5.03195 1.39404 5.5971 1.06332C5.72269 0.98797 5.88596 0.954479 6.07853 0.954479V0.0209316C5.72688 0.0209316 5.40872 0.0962851 5.13242 0.255365C3.95607 0.933548 3.69233 3.04764 4.29934 5.70176C1.69546 6.50553 0 7.79073 0 9.14709C0 10.5076 1.70383 11.797 4.31609 12.5966C3.71326 15.2591 3.98118 17.3774 5.16172 18.0556C5.43383 18.2146 5.75199 18.29 6.10364 18.29C7.25488 18.29 8.76195 17.4695 10.2858 16.0461C11.8096 17.4611 13.3167 18.2733 14.4679 18.2733C14.8195 18.2733 15.1377 18.1979 15.414 18.0388C16.5904 17.3606 16.8541 15.2465 16.2471 12.5924C18.8426 11.7928 20.538 10.5035 20.538 9.14709ZM15.0875 6.35482C14.9326 6.89486 14.74 7.45164 14.5223 8.00842C14.3507 7.67351 14.1707 7.33861 13.9739 7.0037C13.7813 6.6688 13.5762 6.34226 13.3711 6.0241C13.9655 6.11202 14.5391 6.22086 15.0875 6.35482ZM13.1701 10.8132C12.8436 11.3784 12.5087 11.9142 12.1612 12.4124C11.5375 12.4668 10.9053 12.4961 10.269 12.4961C9.63689 12.4961 9.00476 12.4668 8.38519 12.4166C8.03772 11.9184 7.69863 11.3868 7.3721 10.8258C7.05394 10.2774 6.76508 9.72062 6.50134 9.15965C6.7609 8.59869 7.05394 8.03772 7.36791 7.48931C7.69444 6.92416 8.02935 6.38831 8.37681 5.89014C9.00057 5.83572 9.63271 5.80642 10.269 5.80642C10.9012 5.80642 11.5333 5.83572 12.1529 5.88596C12.5003 6.38413 12.8394 6.91579 13.166 7.47675C13.4841 8.02516 13.773 8.58194 14.0367 9.14291C13.773 9.70387 13.4841 10.2648 13.1701 10.8132ZM14.5223 10.269C14.7484 10.83 14.941 11.391 15.1 11.9352C14.5516 12.0691 13.9739 12.1822 13.3753 12.2701C13.5804 11.9477 13.7855 11.617 13.9781 11.2779C14.1707 10.943 14.3507 10.6039 14.5223 10.269ZM10.2774 14.7358C9.88807 14.3339 9.49874 13.886 9.1136 13.3962C9.49037 13.4129 9.87551 13.4255 10.2648 13.4255C10.6584 13.4255 11.0477 13.4171 11.4286 13.3962C11.0519 13.886 10.6625 14.3339 10.2774 14.7358ZM7.16278 12.2701C6.56832 12.1822 5.9948 12.0733 5.44639 11.9394C5.60129 11.3993 5.79386 10.8426 6.01154 10.2858C6.18318 10.6207 6.3632 10.9556 6.55995 11.2905C6.75671 11.6254 6.95765 11.9519 7.16278 12.2701ZM10.2565 3.55837C10.6458 3.96025 11.0351 4.40819 11.4203 4.89799C11.0435 4.88124 10.6584 4.86868 10.269 4.86868C9.87551 4.86868 9.48619 4.87705 9.10523 4.89799C9.482 4.40819 9.87133 3.96025 10.2565 3.55837ZM7.1586 6.0241C6.95347 6.34645 6.74834 6.67717 6.55577 7.01626C6.36319 7.35116 6.18318 7.68607 6.01154 8.02098C5.78548 7.46001 5.59291 6.89904 5.43383 6.35482C5.98224 6.22505 6.55995 6.11202 7.1586 6.0241ZM3.36998 11.2654C1.88803 10.6332 0.929361 9.80434 0.929361 9.14709C0.929361 8.48984 1.88803 7.65677 3.36998 7.02882C3.73001 6.87392 4.12352 6.73578 4.52959 6.606C4.76821 7.42652 5.08218 8.28053 5.47151 9.15547C5.08637 10.0262 4.77658 10.876 4.54215 11.6924C4.12771 11.5626 3.73419 11.4203 3.36998 11.2654ZM5.62222 17.2476C5.05288 16.9211 4.80589 15.6777 4.99846 14.0786C5.04451 13.6851 5.11986 13.2706 5.21196 12.8478C6.03248 13.0487 6.92835 13.2036 7.87027 13.3041C8.43542 14.0786 9.0215 14.7819 9.61177 15.3973C8.24704 16.6657 6.96602 17.3606 6.09527 17.3606C5.90689 17.3565 5.74781 17.3188 5.62222 17.2476ZM15.5522 14.0576C15.7489 15.6568 15.5061 16.9001 14.9409 17.2309C14.8154 17.3062 14.6521 17.3397 14.4595 17.3397C13.593 17.3397 12.3078 16.649 10.943 15.3889C11.5291 14.7735 12.1152 14.0744 12.672 13.2999C13.6181 13.1994 14.5139 13.0445 15.3345 12.8394C15.4307 13.2622 15.5061 13.6683 15.5522 14.0576ZM17.1639 11.2654C16.8039 11.4203 16.4103 11.5584 16.0043 11.6882C15.7657 10.8677 15.4517 10.0137 15.0624 9.13872C15.4475 8.26797 15.7573 7.41815 15.9917 6.60181C16.4062 6.73159 16.7997 6.87392 17.1681 7.02882C18.65 7.66095 19.6087 8.48984 19.6087 9.14709C19.6045 9.80434 18.6458 10.6374 17.1639 11.2654Z" fill="#F9FAFB"/>
<path d="M10.2648 11.0602C11.3214 11.0602 12.178 10.2037 12.178 9.14709C12.178 8.09049 11.3214 7.23395 10.2648 7.23395C9.20823 7.23395 8.35168 8.09049 8.35168 9.14709C8.35168 10.2037 9.20823 11.0602 10.2648 11.0602Z" fill="#F9FAFB"/>
</svg>
