<svg width="21" height="12" viewBox="0 0 21 12" fill="none" xmlns="http://www.w3.org/2000/svg">
<path d="M10.5 0C7.70003 0 5.94997 1.33336 5.25 4C6.3 2.66664 7.52497 2.16664 8.925 2.5C9.72374 2.69016 10.2947 3.24211 10.9266 3.85297C11.9561 4.8482 13.1476 6 15.75 6C18.55 6 20.3 4.66664 21 2C19.95 3.33336 18.725 3.83336 17.325 3.5C16.5263 3.30984 15.9553 2.75789 15.3234 2.14703C14.2939 1.1518 13.1024 0 10.5 0ZM5.25 6C2.45003 6 0.699973 7.33336 0 10C1.05 8.66664 2.27497 8.16664 3.675 8.5C4.47374 8.69016 5.04468 9.24211 5.67664 9.85297C6.70614 10.8482 7.89756 12 10.5 12C13.3 12 15.05 10.6666 15.75 8C14.7 9.33336 13.475 9.83336 12.075 9.5C11.2763 9.30984 10.7053 8.75789 10.0734 8.14703C9.04386 7.1518 7.85244 6 5.25 6Z" fill="#F9FAFB"/>
</svg>
