<svg id="visual" viewBox="0 0 900 600" width="900" height="600" xmlns="http://www.w3.org/2000/svg" xmlns:xlink="http://www.w3.org/1999/xlink" version="1.1"><path d="M0 173L21.5 171.7C43 170.3 86 167.7 128.8 169.2C171.7 170.7 214.3 176.3 257.2 185.2C300 194 343 206 385.8 200.2C428.7 194.3 471.3 170.7 514.2 151.8C557 133 600 119 642.8 124.5C685.7 130 728.3 155 771.2 160.5C814 166 857 152 878.5 145L900 138L900 0L878.5 0C857 0 814 0 771.2 0C728.3 0 685.7 0 642.8 0C600 0 557 0 514.2 0C471.3 0 428.7 0 385.8 0C343 0 300 0 257.2 0C214.3 0 171.7 0 128.8 0C86 0 43 0 21.5 0L0 0Z" fill="#2D3748" stroke-linecap="round" stroke-linejoin="miter"></path></svg>