<svg width="20" height="20" viewBox="0 0 20 20" fill="none" xmlns="http://www.w3.org/2000/svg">
<path d="M0.853668 9.99998V0.853638H19.1464V19.1463H0.853668" fill="#F9FAFB"/>
<path d="M4.86435 10.032V10.7774H7.2424V17.5457H8.9299V10.7774H11.3079V10.0457C11.3079 9.63414 11.3079 9.3003 11.2897 9.29116C11.2897 9.27744 9.83996 9.27286 8.07929 9.27286L4.87807 9.28658V10.0366L4.86435 10.032ZM15.5519 9.26829C16.0183 9.37805 16.375 9.58841 16.6951 9.92225C16.8644 10.1052 17.1159 10.4253 17.1342 10.5076C17.1342 10.5351 16.343 11.0701 15.8628 11.3674C15.8445 11.3811 15.7714 11.3034 15.6982 11.1844C15.4604 10.846 15.218 10.6997 14.8384 10.6723C14.2897 10.6357 13.9238 10.9238 13.9238 11.404C13.9238 11.5503 13.9512 11.6326 14.0061 11.7515C14.1296 12.003 14.3583 12.154 15.0671 12.4649C16.375 13.0274 16.9421 13.3979 17.2851 13.9284C17.6738 14.5229 17.7607 15.4558 17.5 16.1555C17.2073 16.9192 16.4939 17.436 15.4741 17.6052C15.154 17.6601 14.4223 17.6509 14.0793 17.5915C13.3476 17.4543 12.6479 17.0884 12.218 16.6174C12.0488 16.4344 11.7241 15.9451 11.7424 15.9131L11.9162 15.8034L12.6022 15.4055L13.1189 15.1037L13.2378 15.2637C13.3887 15.5015 13.7272 15.8216 13.9238 15.9314C14.5183 16.2378 15.314 16.1966 15.7073 15.8399C15.8765 15.6844 15.9497 15.5198 15.9497 15.2912C15.9497 15.0808 15.9177 14.9848 15.8125 14.8247C15.6662 14.6235 15.3735 14.4588 14.5503 14.093C13.6037 13.6905 13.2012 13.4344 12.8262 13.0412C12.6113 12.8034 12.4147 12.4329 12.3232 12.1265C12.2546 11.8613 12.2317 11.2119 12.2958 10.9512C12.4924 10.0366 13.1829 9.39634 14.1708 9.21341C14.4909 9.14939 15.2454 9.17683 15.561 9.25915L15.5519 9.26829Z" fill="#111827"/>
</svg>
