<svg xmlns="http://www.w3.org/2000/svg" viewBox="0 0 1440 320"><path fill="#1A202C" fill-opacity="1" d="M0,96L26.7,112C53.3,128,107,160,160,160C213.3,160,267,128,320,133.3C373.3,139,427,181,480,197.3C533.3,213,587,203,640,170.7C693.3,139,747,85,800,85.3C853.3,85,907,139,960,154.7C1013.3,171,1067,149,1120,149.3C1173.3,149,1227,171,1280,192C1333.3,213,1387,235,1413,245.3L1440,256L1440,0L1413.3,0C1386.7,0,1333,0,1280,0C1226.7,0,1173,0,1120,0C1066.7,0,1013,0,960,0C906.7,0,853,0,800,0C746.7,0,693,0,640,0C586.7,0,533,0,480,0C426.7,0,373,0,320,0C266.7,0,213,0,160,0C106.7,0,53,0,27,0L0,0Z"></path></svg>
